<svg xmlns="http://www.w3.org/2000/svg" xmlns:xlink="http://www.w3.org/1999/xlink" width="325.564" height="170" viewBox="0 0 325.564 170"><defs><clipPath id="a"><rect width="172" height="170" transform="translate(132.051 260.028)" fill="#fff" stroke="#707070" stroke-width="1"/></clipPath></defs><g transform="translate(-132.051 -260.028)" opacity="0.996"><g opacity="0.3" clip-path="url(#a)"><path d="M83.213,5.736,55.841,79.314,5.062,139.45l78.151-13.369,78.151,13.369L110.584,79.314l-.122-.327L83.213,5.736m0-5.736,29.124,78.29,54.088,64.055L83.213,128.11,0,142.345,54.088,78.29Z" transform="translate(180.777 475.679) rotate(-120)" fill="#fff" opacity="0.697"/><path d="M83.213,0l29.124,78.29,54.088,64.055L83.213,128.11,0,142.345,54.088,78.29Z" transform="matrix(-0.259, -0.966, 0.966, -0.259, 153.597, 466.826)" fill="#fff" opacity="0.198"/></g><path d="M3.693,0V-36.45h8.971V0ZM20.05,0V-36.45H30.685l13.6,24.058h.378l-.328-11.372V-36.45h8.628V0H42.929L29.335-23.372h-.378l.235,10.143V0ZM67.471,0V-28.736h-10.4V-36.45H87.1v7.714H76.443V0ZM91.207,0V-36.45h18.5a21.436,21.436,0,0,1,5.754.689,10.6,10.6,0,0,1,4.075,2.064,8.669,8.669,0,0,1,2.425,3.339,11.878,11.878,0,0,1,.811,4.557,9.29,9.29,0,0,1-1.711,5.589,7.705,7.705,0,0,1-4.582,3.061v.35a6.56,6.56,0,0,1,4.032,2.243,7.526,7.526,0,0,1,1.339,4.764v5.5q0,1.022.075,2.114A6.389,6.389,0,0,0,122.485,0h-9.021a5.872,5.872,0,0,1-.45-1.771,20.17,20.17,0,0,1-.143-2.507V-8.243a6,6,0,0,0-.436-2.429,3.063,3.063,0,0,0-1.536-1.521,7.34,7.34,0,0,0-3.136-.536h-7.586V0Zm8.971-19.793h8.215q2.814,0,4-1.357a5.013,5.013,0,0,0,1.186-3.422,4.69,4.69,0,0,0-.657-2.653,3.716,3.716,0,0,0-1.814-1.414,7.63,7.63,0,0,0-2.714-.439h-8.215ZM143.071,0,125.128-36.45h3.6l14.95,30.493,1.407,3.05h.307l1.4-3.079L161.749-36.45h3.6L147.364,0Zm26.436,0V-36.45h4.2L200.141-3.979h.28l-.215-12.607V-36.45h3.251V0h-4.172L172.9-32.428h-.3l.178,12.128V0Zm52.664,0V-33.614H208.036V-36.45h31.529v2.836H225.429V0Z" transform="translate(218.051 361.028)" fill="#fff"/></g></svg>